<svg width="68" height="35" fill="none" xmlns="http://www.w3.org/2000/svg"><path fill-rule="evenodd" clip-rule="evenodd" d="M6.598 7.635h1.236L7.21 5.014l-.611 2.62zm2.264 2.695H5.556l-.446 1.206H.894v-.402L4.916.993h4.601l4.022 10.14v.402H9.323l-.46-1.206zm9.676-1.653h1.012c.522 0 .746-.327.746-.656 0-.327-.209-.654-.745-.654h-1.013v1.31zm0-3.694h.76c.7 0 .745-1.086 0-1.086h-.76v1.086zm2.517-3.872c1.55 0 2.784 1.312 2.739 2.86-.014.834-.46 1.608-1.28 1.89 1.236.478 1.89 1.282 1.817 2.652-.074 1.786-1.474 3.023-3.306 3.023h-6.552V1.111h6.582zm10.52 6.315l-2.891 4.11h-3.395V1.111h4.037v1.907l-.255 2.19 2.86-4.097h3.396v10.425h-4.066V9.734l.314-2.308zm11.66-2.073c-.727-1.373-2.962-1.052-2.962.986.014 2.047 2.274 2.347 2.977.948l3.647 1.193c-1.955 4.975-10.632 4.312-10.66-2.141.028-6.365 8.384-7.158 10.546-2.437l-3.548 1.45zm6.52 6.183V4.373h-2.218V1.111h8.502v3.262H53.82v7.163h-4.066zM60.57 7.635h1.235l-.627-2.621-.609 2.62zm2.262 2.695h-3.307l-.445 1.206h-4.214v-.402l4.02-10.14h4.6l4.023 10.14v.402h-4.216l-.461-1.206zM5.276 22.224v2.322H1.253V14.123h3.932L7.27 17.1l2.084-2.977h3.917v10.423H9.265v-2.322l.283-2.414-2.278 3.515-2.279-3.515.285 2.414zM21.53 19.29c-.013-2.427-3.185-2.427-3.199 0 .014 2.412 3.186 2.397 3.2 0zm4.068.014c-.03 7.192-11.26 7.267-11.288 0 .028-7.296 11.257-7.281 11.288 0zm7.15 1.876v-3.782h-1.234c-.165 3.143-.3 3.35-.716 3.782h1.95zm4.946 0v4.855h-4.005v-1.489H29.68v1.49h-3.974l.014-4.573 1.029-.238c.341-.327.46-.401.534-1.415l.463-5.687h9.037v7.057h.91zm-.401-7.057h4.108l1.057 2.173.476 2.04.463-2.01.924-2.203h4.33L43.964 24.56H40.03l1.041-2.634-3.779-7.595v-.208zm15.601 6.523l-.61-2.622-.598 2.622-1.458 3.9h-4.125v-.403l3.932-10.14h4.51l3.933 10.14v.403h-4.125l-1.459-3.9zm9.606-.82v1.578h.49c.67 0 .982-.298.982-.789 0-.507-.312-.775-.982-.789h-.49zm.044-3.098h.357c2.576.015 5.003.79 5.003 3.901 0 3.113-2.413 3.902-5.003 3.917h-4.423V14.123h4.066v2.605z" fill="#fff"/><path d="M1.305 27.633h1.262v4.322l2.704-4.322h1.343v6.492h-1.26v-4.238l-2.702 4.238H1.305v-6.492zm6.689 6.492v-6.492h1.349v2.555h2.64v-2.555h1.348v6.492h-1.348v-2.839h-2.64v2.839h-1.35zm10.924-6.492v2.763c.224-.018.395-.098.51-.243.115-.145.275-.475.478-.992.266-.675.54-1.108.82-1.294.276-.183.734-.273 1.38-.273l.195-.005v.97l-.196-.005c-.273 0-.474.033-.6.1a.757.757 0 00-.31.303c-.08.136-.196.414-.352.838a3.058 3.058 0 01-.265.562c-.097.15-.266.292-.509.425.3.086.55.253.745.503.196.25.41.603.645 1.06l.909 1.78h-1.584l-.802-1.678a1.06 1.06 0 00-.076-.137c-.025-.044-.079-.147-.165-.306-.169-.31-.309-.507-.417-.594a.64.64 0 00-.406-.128v2.843h-1.316v-2.843a.655.655 0 00-.401.124c-.113.083-.252.282-.419.598-.094.177-.15.279-.169.306a1.621 1.621 0 00-.076.137l-.802 1.678H14.15l.91-1.78c.226-.44.437-.79.636-1.048a1.42 1.42 0 01.759-.515c-.243-.133-.412-.274-.509-.424a3.06 3.06 0 01-.27-.563 7.208 7.208 0 00-.344-.829.757.757 0 00-.31-.31c-.13-.067-.34-.102-.63-.102-.037 0-.095.001-.174.004v-.969l.196.005c.653 0 1.117.092 1.394.278.273.189.541.618.805 1.29.207.52.367.85.48.994.115.142.285.222.509.24v-2.763h1.316zm4.252 0h1.262v4.322l2.704-4.322h1.343v6.492h-1.26v-4.238l-2.702 4.238H23.17v-6.492zm6.689 6.492v-6.492h1.349v2.555h2.64v-2.555h1.348v6.492h-1.348v-2.839h-2.64v2.839h-1.35zm6.748-6.492h1.262v4.322l2.704-4.322h1.343v6.492h-1.26v-4.238l-2.702 4.238h-1.347v-6.492zm6.685 6.492v-6.492h2.163c.818 0 1.353.033 1.602.098.382.097.704.309.962.635.258.327.387.748.387 1.264 0 .399-.075.735-.224 1.005-.15.272-.337.485-.567.64a1.987 1.987 0 01-.698.308c-.322.062-.788.094-1.399.094h-.878v2.448h-1.348zm1.348-5.393v1.84h.737c.531 0 .887-.032 1.066-.1a.885.885 0 00.421-.32.861.861 0 00.152-.504.826.826 0 00-.214-.585.935.935 0 00-.54-.287c-.162-.03-.486-.044-.97-.044h-.652zm4.89-1.099h1.261v4.322l2.705-4.322h1.342v6.492h-1.26v-4.238l-2.701 4.238h-1.348v-6.492zm6.688 6.492v-6.492h1.35v2.555h2.64v-2.555h1.347v6.492h-1.347v-2.839h-2.64v2.839h-1.35zm6.798-6.492h4.523v1.09h-3.174v5.402h-1.349v-6.492z" fill="#fff"/></svg>