<svg width="57" height="35" fill="none" xmlns="http://www.w3.org/2000/svg"><path fill-rule="evenodd" clip-rule="evenodd" d="M46.4 18.33l-8.585-8.587-8.588 8.586 8.588 8.587 8.586-8.587zm-19.484 0L18.33 9.742 9.744 18.33l8.586 8.587 8.586-8.587zm29.228 9.742l-8.586-8.586-8.587 8.586 5.763 5.764h.002A3.978 3.978 0 0047.558 35a3.979 3.979 0 002.822-1.164l5.764-5.764zm-38.97 0l-8.587-8.586L0 28.072l5.764 5.764h.001A3.975 3.975 0 008.586 35a3.983 3.983 0 002.823-1.164l5.764-5.764zm19.484 0l-8.585-8.586-8.588 8.586 5.764 5.764A3.98 3.98 0 0028.071 35a3.98 3.98 0 002.823-1.164l5.764-5.764z" fill="#fff"/><path fill-rule="evenodd" clip-rule="evenodd" d="M36.658 8.587L28.073 0l-8.587 8.587 8.587 8.586 8.585-8.586z" fill="#E30D40"/></svg>