<svg width="57" height="36" fill="none" xmlns="http://www.w3.org/2000/svg"><path fill-rule="evenodd" clip-rule="evenodd" d="M46.4 18.543l-8.585-8.586-8.588 8.586 8.588 8.587 8.586-8.587zm-19.484 0L18.33 9.956l-8.586 8.587 8.586 8.587 8.586-8.587zm29.228 9.743l-8.586-8.587-8.587 8.587 5.763 5.763.002.001a3.979 3.979 0 002.822 1.164 3.979 3.979 0 002.822-1.164l5.764-5.764zm-38.97 0l-8.587-8.587L0 28.286l5.764 5.763.001.001a3.975 3.975 0 002.821 1.164 3.983 3.983 0 002.823-1.164l5.764-5.764zm19.484 0l-8.585-8.587-8.588 8.587 5.764 5.763v.001a3.981 3.981 0 002.822 1.164 3.98 3.98 0 002.823-1.164l5.764-5.764z" fill="#492D7D"/><path fill-rule="evenodd" clip-rule="evenodd" d="M36.658 8.8L28.073.214 19.486 8.8l8.587 8.587L36.658 8.8z" fill="#E30D40"/></svg>